<?xml version="1.0" encoding="utf-8"?>
<!-- Generator: Adobe Illustrator 19.0.0, SVG Export Plug-In . SVG Version: 6.00 Build 0)  -->
<svg version="1.1" id="Layer_1" xmlns="http://www.w3.org/2000/svg" xmlns:xlink="http://www.w3.org/1999/xlink" x="0px" y="0px"
	 viewBox="0 0 96 96" style="enable-background:new 0 0 96 96;" xml:space="preserve">
<style type="text/css">
	.st0{fill:#CA4638;}
	.st1{fill:#FFFFFF;}
</style>
<g id="XMLID_1_">
	<circle id="XMLID_3_" class="st0" cx="48" cy="48" r="27.5"/>
	<path id="XMLID_6_" class="st1" d="M65.6,40.7c0,0-0.3-2.4-1.4-3.5c-1.3-1.4-2.8-1.4-3.5-1.5c-4.9-0.4-12.3-0.4-12.3-0.4h0
		c0,0-7.4,0-12.3,0.4c-0.7,0.1-2.2,0.1-3.5,1.5c-1.1,1.1-1.4,3.5-1.4,3.5s-0.4,2.8-0.4,5.7v2.7c0,2.8,0.4,5.7,0.4,5.7
		s0.3,2.4,1.4,3.5c1.3,1.4,3.1,1.4,3.9,1.5c2.8,0.3,12,0.4,12,0.4s7.4,0,12.3-0.4c0.7-0.1,2.2-0.1,3.5-1.5c1.1-1.1,1.4-3.5,1.4-3.5
		s0.4-2.8,0.4-5.7v-2.7C66,43.6,65.6,40.7,65.6,40.7z M44.8,52.3l0-9.9l9.5,5L44.8,52.3z"/>
</g>
</svg>
